<?xml version="1.0" encoding="UTF-8"?>
<!DOCTYPE svg PUBLIC "-//W3C//DTD SVG 1.1//EN" "http://www.w3.org/Graphics/SVG/1.1/DTD/svg11.dtd">
<svg xmlns="http://www.w3.org/2000/svg" width="100%" height="100%">
   
    <svg width="800" height="600" xmlns="http://www.w3.org/2000/svg">
        <style>
            text { font-family: Arial, sans-serif; font-size: 14px; }
            rect { fill: lightblue; stroke: black; stroke-width: 1; }
            line { stroke: black; stroke-width: 1; }
        </style>
        <g>
            <!-- Title -->
            <text x="10" y="20">Quran Document Structure</text>
            
            <!-- Chapter 14 -->
            <rect x="10" y="40" width="200" height="40"/>
            <text x="20" y="65">Chapter 14</text>
            <!-- Verses of Chapter 14 -->
            <rect x="30" y="100" width="180" height="40"/>
            <text x="40" y="125">Verse 32</text>
            <line x1="110" y1="80" x2="110" y2="100" />
            <rect x="30" y="140" width="180" height="40"/>
            <text x="40" y="165">Verse 33</text>
            <line x1="110" y1="120" x2="110" y2="140" />
            <rect x="30" y="180" width="180" height="40"/>
            <text x="40" y="205">Verse 34</text>
            
            <!-- Chapter 23 -->
            <rect x="230" y="40" width="200" height="40"/>
            <text x="240" y="65">Chapter 23</text>
            <!-- Verses of Chapter 23 -->
            <rect x="250" y="100" width="180" height="40"/>
            <text x="260" y="125">Verse 12</text>
            <line x1="320" y1="80" x2="320" y2="100" />
            <rect x="250" y="140" width="180" height="40"/>
            <text x="260" y="165">Verse 13</text>
            <line x1="320" y1="120" x2="320" y2="140" />
            <rect x="250" y="180" width="180" height="40"/>
            <text x="260" y="205">Verse 14</text>
            
            <!-- Chapter 35 -->
            <rect x="450" y="40" width="200" height="40"/>
            <text x="460" y="65">Chapter 35</text>
            <!-- Verses of Chapter 35 -->
            <rect x="470" y="100" width="180" height="40"/>
            <text x="480" y="125">Verse 1</text>
            <line x1="540" y1="80" x2="540" y2="100" />
            

        </g>
    </svg>
   
   
   
</svg>